<svg width="14" height="14" viewBox="0 0 14 14" fill="none" xmlns="http://www.w3.org/2000/svg">
<path d="M12.6807 2.73443C13.0863 2.32645 13.0844 1.6669 12.6764 1.26129C12.2685 0.85568 11.6089 0.857598 11.2033 1.26557L12.6807 2.73443ZM7 6.97084L6.26129 6.23642C5.85735 6.64272 5.85735 7.29897 6.26129 7.70527L7 6.97084ZM11.2613 12.7344C11.6669 13.1424 12.3264 13.1443 12.7344 12.7387C13.1424 12.3331 13.1443 11.6736 12.7387 11.2656L11.2613 12.7344ZM2.79668 1.26557C2.39107 0.857598 1.73153 0.85568 1.32355 1.26129C0.915573 1.6669 0.913655 2.32645 1.31927 2.73443L2.79668 1.26557ZM7 6.97084L7.73871 7.70527C8.14265 7.29897 8.14265 6.64272 7.73871 6.23642L7 6.97084ZM1.26129 11.2656C0.85568 11.6736 0.857598 12.3331 1.26557 12.7387C1.67355 13.1443 2.3331 13.1424 2.73871 12.7344L1.26129 11.2656ZM11.2033 1.26557L6.26129 6.23642L7.73871 7.70527L12.6807 2.73443L11.2033 1.26557ZM6.26129 7.70527L11.2613 12.7344L12.7387 11.2656L7.73871 6.23642L6.26129 7.70527ZM1.31927 2.73443L6.26129 7.70527L7.73871 6.23642L2.79668 1.26557L1.31927 2.73443ZM6.26129 6.23642L1.26129 11.2656L2.73871 12.7344L7.73871 7.70527L6.26129 6.23642Z" fill="#292929"/>
</svg>
