<svg width="80" height="80" viewBox="0 0 80 80" fill="none" xmlns="http://www.w3.org/2000/svg">
<g clip-path="url(#clip0_4659_123435)">
<path d="M63.4802 20.2546C67.9202 26.8412 67.2802 36.4679 65.0802 45.5612C62.8802 54.6679 59.1069 63.2546 52.7869 66.1479C46.4669 69.0279 37.5869 66.2279 29.6669 62.1479C21.7336 58.0679 14.7469 52.7212 11.9069 45.0412C9.05357 37.3746 10.3469 27.3746 15.7202 20.5746C21.0936 13.7746 30.5469 10.1479 40.0402 10.1212C49.5202 10.0946 59.0402 13.6546 63.4802 20.2546Z" fill="#FCB900"/>
<path fill-rule="evenodd" clip-rule="evenodd" d="M21.9889 58.5845L28.8294 13.8817C29.1562 11.7458 31.1527 10.2793 33.2887 10.6061L55.9856 14.0792C58.1215 14.4061 59.5881 16.4025 59.2613 18.5385L52.4208 63.2412C52.0939 65.3771 50.0975 66.8437 47.9615 66.5168L25.2646 63.0437C23.1286 62.7169 21.6621 60.7204 21.9889 58.5845Z" fill="#6BA2CE"/>
<path fill-rule="evenodd" clip-rule="evenodd" d="M21.9889 58.5845L28.8294 13.8818C29.1562 11.7458 31.1527 10.2793 33.2887 10.6061L55.9856 14.0792C58.1215 14.4061 59.5881 16.4026 59.2613 18.5385L52.4208 63.2412C52.0939 65.3771 50.0974 66.8437 47.9615 66.5169L25.2646 63.0437C23.1286 62.7169 21.6621 60.7204 21.9889 58.5845Z" stroke="#575756" stroke-width="0.608" stroke-linecap="round" stroke-linejoin="round"/>
<path d="M25.0788 62.134C24.9679 62.1183 24.8582 62.0949 24.7505 62.0641C23.453 61.6909 22.6368 60.4094 22.8475 59.0757L29.7027 13.7493C29.9232 12.289 31.2808 11.2803 32.7427 11.4906L55.5427 14.9593C55.6533 14.9764 55.7629 14.9998 55.871 15.0292" stroke="white" stroke-width="0.459556" stroke-linecap="round" stroke-linejoin="round"/>
<path fill-rule="evenodd" clip-rule="evenodd" d="M55.6422 17.3795C55.6176 17.3685 55.5922 17.3594 55.5662 17.3521C55.5188 17.3363 55.4699 17.3251 55.4203 17.3187L32.7237 13.847C32.416 13.799 32.1018 13.8756 31.8508 14.0599C31.5998 14.2442 31.4325 14.5209 31.3861 14.8289L28.4221 34.0174L25.9658 49.9257L25.5006 53.8959C25.4484 54.2042 25.5233 54.5206 25.7084 54.7727C25.8934 55.0247 26.1728 55.191 26.4826 55.2335L29.7323 55.7321L34.9003 56.5225L49.1731 58.7052C49.4808 58.7532 49.7949 58.6765 50.046 58.4923C50.297 58.308 50.4643 58.0312 50.5107 57.7233L51.9182 47.6579L52.6326 43.031L54.2378 32.6433L56.3962 18.6593C56.4812 18.1077 56.1659 17.5725 55.6422 17.3795Z" fill="#C1F4E5"/>
<path fill-rule="evenodd" clip-rule="evenodd" d="M26.3392 55.2062C25.7723 55.0419 25.4156 54.4822 25.5062 53.899L31.3856 14.8289C31.432 14.521 31.5992 14.2442 31.8503 14.0599C32.1013 13.8756 32.4155 13.799 32.7232 13.847L55.4198 17.3187C55.4694 17.3251 55.5183 17.3363 55.5657 17.3521C56.1334 17.5138 56.4918 18.0729 56.4017 18.6563L50.5163 57.7263C50.4699 58.0343 50.3026 58.311 50.0516 58.4953C49.8005 58.6796 49.4864 58.7562 49.1787 58.7083L26.482 55.2366C26.4338 55.2294 26.3861 55.2193 26.3392 55.2062Z" stroke="#575756" stroke-width="0.608" stroke-linecap="round" stroke-linejoin="round"/>
<path fill-rule="evenodd" clip-rule="evenodd" d="M26.3392 55.2062C25.7723 55.0419 25.4156 54.4822 25.5062 53.899L31.3856 14.8289C31.432 14.521 31.5992 14.2442 31.8503 14.0599C32.1013 13.8756 32.4155 13.799 32.7232 13.847L55.4198 17.3187C55.4694 17.3251 55.5183 17.3363 55.5657 17.3521C56.1334 17.5138 56.4918 18.0729 56.4017 18.6563L50.5163 57.7263C50.4699 58.0343 50.3026 58.311 50.0516 58.4953C49.8005 58.6796 49.4864 58.7562 49.1787 58.7083L26.482 55.2366C26.4338 55.2294 26.3861 55.2193 26.3392 55.2062Z" stroke="#575756" stroke-width="0.608" stroke-linecap="round" stroke-linejoin="round"/>
<path fill-rule="evenodd" clip-rule="evenodd" d="M39.3884 60.7782C39.3884 62.2624 38.1852 63.4655 36.701 63.4655C35.2168 63.4655 34.0137 62.2624 34.0137 60.7782C34.0137 59.294 35.2168 58.0908 36.701 58.0908C38.1852 58.0908 39.3884 59.294 39.3884 60.7782Z" fill="#4686B2"/>
<path fill-rule="evenodd" clip-rule="evenodd" d="M39.3884 60.7782C39.3884 62.2624 38.1852 63.4655 36.701 63.4655C35.2168 63.4655 34.0137 62.2624 34.0137 60.7782C34.0137 59.294 35.2168 58.0908 36.701 58.0908C38.1852 58.0908 39.3884 59.294 39.3884 60.7782Z" stroke="#575756" stroke-width="0.608" stroke-linecap="round" stroke-linejoin="round"/>
<path d="M35.6266 62.3681C35.0419 61.9521 34.7383 61.2446 34.8396 60.5343C34.9408 59.8239 35.4301 59.2295 36.1077 58.9935C36.7853 58.7575 37.538 58.9194 38.0586 59.4132" stroke="white" stroke-width="0.459556" stroke-linecap="round" stroke-linejoin="round"/>
</g>
<defs>
<clipPath id="clip0_4659_123435">
<rect width="80" height="80" fill="white"/>
</clipPath>
</defs>
</svg>
