<svg width="24" height="24" viewBox="0 0 24 24" fill="none" xmlns="http://www.w3.org/2000/svg">
<circle cx="12" cy="12" r="12" fill="#EEEEEE"/>
<path d="M12.0002 6.19995C12.513 6.19995 12.9357 6.58599 12.9935 7.08333L13.0002 7.19995V10.999L16.8002 11C17.3525 11 17.8002 11.4477 17.8002 12C17.8002 12.5128 17.4142 12.9355 16.9168 12.9932L16.8002 13L13.0002 12.999V16.8C13.0002 17.3522 12.5525 17.8 12.0002 17.8C11.4874 17.8 11.0647 17.4139 11.0069 16.9166L11.0002 16.8V12.999L7.2002 13C6.64791 13 6.2002 12.5522 6.2002 12C6.2002 11.4871 6.58624 11.0644 7.08357 11.0067L7.2002 11L11.0002 10.999V7.19995C11.0002 6.64767 11.4479 6.19995 12.0002 6.19995Z" fill="#D8D8D8"/>
</svg>
