<svg width="30" height="29" viewBox="0 0 30 29" fill="none" xmlns="http://www.w3.org/2000/svg">
<path d="M8.63088 23.6098C5.93221 21.8726 3.22474 19.5947 2.64481 16.814C2.06976 14.0271 3.62345 10.7484 5.86667 8.29606C8.10989 5.8437 11.0328 4.22987 14.1604 3.83395C17.2824 3.43861 20.6042 4.26727 22.7035 6.26293C24.7973 8.25917 25.6681 11.4169 25.7196 14.3928C25.7765 17.3681 25.0189 20.1556 23.3751 22.3495C21.7361 24.5373 19.2163 26.1311 16.6118 26.3324C14.0073 26.5337 11.3296 25.347 8.63088 23.6098Z" fill="#00A082"/>
<path d="M24.9429 24.173C24.9429 24.1675 24.9375 24.1675 24.9375 24.1621L24.9429 24.173Z" fill="white"/>
<path d="M24.9546 24.2009C24.9492 24.1955 24.9492 24.1847 24.9492 24.1738L24.9546 24.2009Z" fill="white"/>
<path d="M20.887 22.8761L20.5931 22.7629L20.3292 22.9347C18.9332 23.8433 17.2757 24.3753 15.4856 24.3753C10.581 24.3753 6.60464 20.3989 6.60464 15.4944C6.60464 10.5903 10.586 6.61343 15.491 6.61343C20.3955 6.61343 24.3719 10.5898 24.3719 15.4944C24.3719 17.2688 23.845 18.9216 22.9464 20.3126L22.7699 20.586L22.896 20.886L24.2825 24.184L20.887 22.8761Z" fill="white" stroke="#4A4A4A" stroke-width="1.23271"/>
<path d="M1.99445 12.1204C2.02604 11.877 2.22773 11.6973 2.46448 11.6854L2.55465 11.6889L5.35954 12.053C5.63339 12.0886 5.82657 12.3394 5.79102 12.6132C5.75942 12.8566 5.55774 13.0363 5.32098 13.0483L5.23082 13.0447L2.42592 12.6806C2.15208 12.6451 1.9589 12.3943 1.99445 12.1204Z" fill="#4A4A4A"/>
<path d="M1.27091 7.01025C1.39228 6.79689 1.64696 6.7069 1.87063 6.78543L1.95274 6.82286L5.83996 9.03407C6.07999 9.17061 6.16389 9.47587 6.02735 9.7159C5.90598 9.92926 5.6513 10.0192 5.42763 9.94072L5.34552 9.90328L1.45829 7.69207C1.21827 7.55554 1.13437 7.25027 1.27091 7.01025Z" fill="#4A4A4A"/>
<path d="M6.22897 4.26578C6.44266 4.14501 6.70742 4.19854 6.85904 4.38078L6.91027 4.45506L8.52172 7.31639C8.65759 7.55679 8.57285 7.86182 8.33245 7.99769C8.11875 8.11847 7.854 8.06493 7.70238 7.8827L7.65114 7.80842L6.03969 4.94708C5.91892 4.73339 5.97246 4.46864 6.15469 4.31701L6.22897 4.26578Z" fill="#4A4A4A"/>
</svg>
