<svg width="52" height="32" viewBox="0 0 52 32" fill="none" xmlns="http://www.w3.org/2000/svg">
<path fill-rule="evenodd" clip-rule="evenodd" d="M32.5555 15.2461C32.5555 12.812 34.5288 10.8387 36.9629 10.8387C39.397 10.8387 41.3703 12.812 41.3703 15.2461C41.3703 17.6802 39.397 19.6535 36.9629 19.6535C34.5288 19.6535 32.5555 17.6802 32.5555 15.2461ZM36.9629 9.2832C33.6697 9.2832 31 11.9529 31 15.2461C31 18.5393 33.6697 21.209 36.9629 21.209C38.1562 21.209 39.2676 20.8585 40.1999 20.2548L42.5979 23.0155C42.8796 23.3398 43.3708 23.3743 43.6951 23.0926C44.0194 22.8109 44.054 22.3197 43.7723 21.9954L41.3847 19.2467C42.3424 18.1888 42.9258 16.7856 42.9258 15.2461C42.9258 11.9529 40.2561 9.2832 36.9629 9.2832Z" fill="#4A4A4A"/>
<rect width="52" height="32" rx="16" fill="#F5F5F5"/>
<path fill-rule="evenodd" clip-rule="evenodd" d="M21.5555 15.2461C21.5555 12.812 23.5288 10.8387 25.9629 10.8387C28.397 10.8387 30.3703 12.812 30.3703 15.2461C30.3703 17.6802 28.397 19.6535 25.9629 19.6535C23.5288 19.6535 21.5555 17.6802 21.5555 15.2461ZM25.9629 9.2832C22.6697 9.2832 20 11.9529 20 15.2461C20 18.5393 22.6697 21.209 25.9629 21.209C27.1562 21.209 28.2676 20.8585 29.1999 20.2548L31.5979 23.0155C31.8796 23.3398 32.3708 23.3743 32.6951 23.0926C33.0194 22.8109 33.054 22.3197 32.7723 21.9954L30.3847 19.2467C31.3424 18.1888 31.9258 16.7856 31.9258 15.2461C31.9258 11.9529 29.2561 9.2832 25.9629 9.2832Z" fill="#4A4A4A"/>
</svg>
