<svg data-v-c6164184="" width="24" height="24" viewBox="0 0 24 24" fill="none" xmlns="http://www.w3.org/2000/svg"><circle opacity="0.3" cx="12" cy="12" r="12" fill="black"></circle> <path d="M16.6628 8.70505C17.0522 8.31339 17.0503 7.68023 16.6587 7.29084C16.267 6.90145 15.6338 6.90329 15.2445 7.29495L16.6628 8.70505ZM12 11.9767L11.2908 11.2716C10.9031 11.6617 10.9031 12.2917 11.2908 12.6817L12 11.9767ZM15.2908 16.705C15.6802 17.0967 16.3134 17.0985 16.705 16.7092C17.0967 16.3198 17.0985 15.6866 16.7092 15.295L15.2908 16.705ZM8.75554 7.29495C8.36615 6.90329 7.73299 6.90145 7.34133 7.29084C6.94967 7.68023 6.94783 8.31339 7.33722 8.70505L8.75554 7.29495ZM12 11.9767L12.7092 12.6817C13.0969 12.2917 13.0969 11.6617 12.7092 11.2716L12 11.9767ZM7.29084 15.295C6.90145 15.6866 6.90329 16.3198 7.29495 16.7092C7.68661 17.0985 8.31977 17.0967 8.70916 16.705L7.29084 15.295ZM15.2445 7.29495L11.2908 11.2716L12.7092 12.6817L16.6628 8.70505L15.2445 7.29495ZM11.2908 12.6817L15.2908 16.705L16.7092 15.295L12.7092 11.2716L11.2908 12.6817ZM7.33722 8.70505L11.2908 12.6817L12.7092 11.2716L8.75554 7.29495L7.33722 8.70505ZM11.2908 11.2716L7.29084 15.295L8.70916 16.705L12.7092 12.6817L11.2908 11.2716Z" fill="white"></path></svg>