<svg width="24" height="24" viewBox="0 0 24 24" fill="none" xmlns="http://www.w3.org/2000/svg">
<path d="M12.1289 8.36932C11.827 8.36932 11.5822 8.61402 11.582 8.91595L11.5807 12.1258C11.5807 12.2684 11.6384 12.4047 11.7409 12.5054L14.0984 14.8196C14.3091 15.0264 14.6467 15.0264 14.8575 14.8195C15.0738 14.6072 15.0738 14.2586 14.8574 14.0463L12.6744 11.9034L12.6758 8.91643C12.6759 8.61431 12.431 8.36932 12.1289 8.36932Z" fill="#292929"/>
<path d="M3.25 10.7727L5.33333 12.4091L7.41667 10.7727" stroke="#292929" stroke-width="1.5" stroke-linecap="round" stroke-linejoin="round"/>
<path d="M5.35341 11.4617C5.65621 7.40576 9.25055 4.35877 13.3816 4.65606C17.5127 4.95335 20.6161 8.48234 20.3133 12.5383C20.0105 16.5942 16.4161 19.6412 12.2851 19.3439C10.5637 19.22 9.0207 18.535 7.82827 17.4845" stroke="#292929" stroke-width="1.5" stroke-linecap="round"/>
</svg>
